<!DOCTYPE svg PUBLIC "-//W3C//DTD SVG 1.1//EN" "http://www.w3.org/Graphics/SVG/1.1/DTD/svg11.dtd">
<!-- Uploaded to: SVG Repo, www.svgrepo.com, Transformed by: SVG Repo Mixer Tools -->
<svg fill="#000000" width="800px" height="800px" viewBox="-8 -8 48.00 48.00" id="icon" xmlns="http://www.w3.org/2000/svg">
<g id="SVGRepo_bgCarrier" stroke-width="0">
<rect x="-8" y="-8" width="48.00" height="48.00" rx="24" fill="#ffffff" strokewidth="0"/>
</g>
<g id="SVGRepo_tracerCarrier" stroke-linecap="round" stroke-linejoin="round"/>
<g id="SVGRepo_iconCarrier">
<defs>
<style>.cls-1{fill:none;}</style>
</defs>
<title>inventory-management</title>
<rect x="19" y="24" width="4" height="4"/>
<rect x="26" y="24" width="4" height="4"/>
<rect x="19" y="17" width="4" height="4"/>
<rect x="26" y="17" width="4" height="4"/>
<path d="M17,24H4V10H28v5h2V10a2.0023,2.0023,0,0,0-2-2H22V4a2.0023,2.0023,0,0,0-2-2H12a2.002,2.002,0,0,0-2,2V8H4a2.002,2.002,0,0,0-2,2V24a2.0023,2.0023,0,0,0,2,2H17ZM12,4h8V8H12Z"/>
<rect id="_Transparent_Rectangle_" data-name="&lt;Transparent Rectangle&gt;" class="cls-1" width="32" height="32"/>
</g>
</svg>